<svg xmlns="http://www.w3.org/2000/svg" width="21.008" height="25" viewBox="0 0 21.008 25">
  <path id="apple-brands" d="M21.565,45.211a5.211,5.211,0,0,1,2.791-4.733,6,6,0,0,0-4.727-2.489c-1.981-.156-4.147,1.155-4.94,1.155-.837,0-2.757-1.1-4.264-1.1C7.31,38.095,4,40.528,4,45.479a13.911,13.911,0,0,0,.8,4.532C5.518,52.059,8.1,57.083,10.787,57c1.407-.033,2.4-1,4.231-1,1.775,0,2.7,1,4.264,1,2.713-.039,5.046-4.6,5.726-6.659a5.533,5.533,0,0,1-3.444-5.129Zm-3.159-9.165A5.257,5.257,0,0,0,19.745,32a5.918,5.918,0,0,0-3.79,1.948,5.339,5.339,0,0,0-1.429,4.013A4.688,4.688,0,0,0,18.406,36.047Z" transform="translate(-4 -32)" fill="#fff"/>
</svg>
