<svg xmlns="http://www.w3.org/2000/svg" width="25" height="10.857" viewBox="0 0 25 10.857">
  <path id="SoundCloud" d="M4.352,122.538l.227,2.539-.227,2.668a.185.185,0,0,1-.172.172.169.169,0,0,1-.164-.172L3.8,125.078l.219-2.539a.168.168,0,0,1,.164-.164A.187.187,0,0,1,4.352,122.538Zm.836-1.782a.2.2,0,0,0-.2.2l-.2,4.126.2,2.668a.2.2,0,0,0,.2.2.191.191,0,0,0,.184-.2l.227-2.668-.227-4.126A.191.191,0,0,0,5.188,120.757Zm1-.942a.216.216,0,0,0-.219.207L5.794,125.1l.172,2.649a.216.216,0,0,0,.219.207.206.206,0,0,0,.207-.207L6.6,125.1l-.207-5.079A.206.206,0,0,0,6.185,119.815Zm-5.9,3.774c-.055,0-.086.043-.1.1L0,125.078l.184,1.367c.012.055.043.1.1.1s.086-.043.1-.1L.6,125.078l-.219-1.391C.367,123.632.336,123.589.281,123.589Zm.922-.856a.1.1,0,0,0-.1.1l-.25,2.246.25,2.192a.1.1,0,0,0,.1.109.116.116,0,0,0,.109-.1l.281-2.2-.281-2.246A.116.116,0,0,0,1.2,122.734Zm.988-.445a.135.135,0,0,0-.129.129l-.227,2.661.227,2.571a.141.141,0,0,0,.129.121.122.122,0,0,0,.121-.121l.27-2.571-.27-2.661A.124.124,0,0,0,2.192,122.288Zm.988-.086a.138.138,0,0,0-.141.141l-.227,2.735.227,2.649a.138.138,0,0,0,.141.141.155.155,0,0,0,.152-.141l.25-2.649-.25-2.735A.155.155,0,0,0,3.18,122.2Zm9.431-4.333a.305.305,0,0,0-.164-.055.359.359,0,0,0-.219.074.4.4,0,0,0-.129.262v.031l-.129,6.9.066,1.27.066,1.238a.357.357,0,0,0,.348.336.338.338,0,0,0,.336-.336l.152-2.508-.152-6.935a.376.376,0,0,0-.176-.281Zm-1.043.6a.343.343,0,0,0-.172-.055.332.332,0,0,0-.172.055.309.309,0,0,0-.141.262l-.012.066-.109,6.282s0,.012.121,2.563v.012a.3.3,0,0,0,.066.184.335.335,0,0,0,.25.121.317.317,0,0,0,.219-.1.269.269,0,0,0,.1-.219l.012-.262.121-2.289-.129-6.36a.351.351,0,0,0-.152-.262Zm-4.352.879a.237.237,0,0,0-.227.238l-.172,5.493.172,2.625a.233.233,0,0,0,.465,0l.2-2.625-.2-5.493A.245.245,0,0,0,7.216,119.346ZM21.933,121.8a3.138,3.138,0,0,0-1.2.238,5.429,5.429,0,0,0-5.4-4.938,5.328,5.328,0,0,0-1.965.367c-.238.086-.3.172-.3.359v9.755a.368.368,0,0,0,.336.359h8.529a3.071,3.071,0,0,0,0-6.142Zm-11.592-2.356a.31.31,0,0,0-.3.3l-.129,5.341.129,2.563a.308.308,0,0,0,.3.293.29.29,0,0,0,.293-.293l.152-2.563-.152-5.341A.3.3,0,0,0,10.341,119.444Zm-2.094-.3A.265.265,0,0,0,8,119.4l-.152,5.677L8,127.692a.256.256,0,0,0,.512,0l.172-2.614L8.509,119.4A.275.275,0,0,0,8.247,119.139Zm1.043.133a.268.268,0,0,0-.27.27l-.152,5.536.152,2.594a.275.275,0,0,0,.27.27.27.27,0,0,0,.27-.27l.164-2.594-.164-5.536a.265.265,0,0,0-.27-.27Z" transform="translate(0 -117.1)" fill="#fff"/>
</svg>
