<svg xmlns="http://www.w3.org/2000/svg" width="25" height="25.754" viewBox="0 0 25 25.754">
  <path id="triple_j" d="M7.229,14.67a5.533,5.533,0,0,1-.915-1.06c1.3-.048,2.427-.087,3.564-.116.106,0,.212.106.318.183a.677.677,0,0,0,.983-.135.643.643,0,0,0-.039-.915.7.7,0,0,0-.954-.1,1.217,1.217,0,0,1-.6.193c-1.069.019-2.148.01-3.323.01a3.284,3.284,0,0,1,.212-.925A10.243,10.243,0,0,1,7.749,9.97,9.852,9.852,0,0,1,11.2,7.783c.222.491.453.963.636,1.455.058.144-.029.337-.048.5a.7.7,0,0,0,.482.79.65.65,0,0,0,.828-.308.567.567,0,0,0-.116-.857,1.746,1.746,0,0,1-.694-1.088c-.1-.25-.193-.5-.308-.809a13.163,13.163,0,0,1,7.581-.472c-.482.5-.867.963-1.31,1.377-.356.328-.645.241-.886-.193-.077-.144-.125-.289-.193-.443s-.125-.27-.222-.472c-.491,2.264-.53,2.293-2.745,1.955.568.5,1.31.905,1.117,1.647a5.286,5.286,0,0,1-.954,1.5,7.452,7.452,0,0,1,1.782.029c.78.173.771,1,.963,1.638.742-2.3,1.291-1.811,2.7-1.5-.106-.26-.212-.482-.279-.713-.212-.645-.1-.915.52-1.185.366-.164.742-.3,1.108-.443l-.01-.135a5.521,5.521,0,0,1-.8-.01c-.2-.039-.491-.106-.568-.26s.067-.4.164-.6a1.881,1.881,0,0,1,.4-.472c.289-.279.588-.539.886-.8a2.274,2.274,0,0,1,.79,2.668,4.988,4.988,0,0,1-1.647,2.273,13.353,13.353,0,0,1-6.733,2.87,10.283,10.283,0,0,1-4.72-.222A6.051,6.051,0,0,1,7.229,14.67Zm15.884-.751c-.067-.539-.144-1.079-.222-1.618h-.125c-.645,3.1-1.291,6.213-1.965,9.459l-5.124-5.009c-.655,2.312-1.271,4.537-1.936,6.9L7.315,16.443,7.2,16.52c.048.116.087.231.135.347.867,2.013,1.782,4.017,2.6,6.059a4.072,4.072,0,0,0,2.8,2.485,9.721,9.721,0,0,0,5.645-.173,8.923,8.923,0,0,0,4.315-2.6,3.83,3.83,0,0,0,1.108-3.073C23.565,17.676,23.344,15.8,23.113,13.919ZM24.625,2.447a1.11,1.11,0,0,0-.588.029c-.106.029-.183.173-.27.27q-2.832,3.338-5.7,6.656a1.464,1.464,0,0,1-.616.376.6.6,0,0,0-.472.684.565.565,0,0,0,.607.559.618.618,0,0,0,.645-.53,1.849,1.849,0,0,1,.328-.694c1.984-2.119,3.988-4.219,5.982-6.329a5.339,5.339,0,0,0,.424-.6C24.827,2.7,24.75,2.485,24.625,2.447ZM10.918,6.907c.058.144.135.27.212.424l.607-.25C10.879,4.807,10.051,2.553,9.174.308,9.117.144,8.78,0,8.577,0,8.2.01,8.086.395,8.288.867ZM.65,12.657c-.453,0-.722.2-.684.549.048.433.356.52.732.5,1-.039,1.994-.067,2.986-.1.732-.029,1.464-.058,2.215-.1-.039-.26-.067-.482-.125-.857Z" transform="translate(0.038)" fill="#fff"/>
</svg>
